<svg id="Layer_1" data-name="Layer 1" xmlns="http://www.w3.org/2000/svg" xmlns:xlink="http://www.w3.org/1999/xlink" viewBox="0 0 1131.95376 2444"><defs><style>.cls-1{fill:#a4f7ab;stroke:#a4f7ab;stroke-width:2.26384px;}.cls-1,.cls-12,.cls-13,.cls-14,.cls-15,.cls-17,.cls-8,.cls-9{stroke-miterlimit:10;}.cls-2{fill:url(#linear-gradient);}.cls-3{fill:url(#linear-gradient-2);}.cls-4{font-size:56.94461px;font-family:CopperplateGothic-Light, Copperplate Gothic Light;font-weight:300;}.cls-12,.cls-13,.cls-4,.cls-7{fill:#0c721a;}.cls-5{letter-spacing:0.01367em;}.cls-6{letter-spacing:0.01904em;}.cls-14,.cls-17,.cls-8{fill:none;}.cls-14,.cls-8{stroke:#0c721a;}.cls-8{stroke-width:5.88166px;}.cls-9{stroke-width:5.90751px;fill:url(#linear-gradient-3);stroke:url(#linear-gradient-4);}.cls-10,.cls-11{font-size:60px;font-family:Helvetica;}.cls-11,.cls-15,.cls-16{fill:#fff;}.cls-12,.cls-13,.cls-14{stroke-width:3px;}.cls-12{stroke:url(#linear-gradient-5);}.cls-13{stroke:url(#linear-gradient-6);}.cls-15{stroke:#fff;stroke-width:5.52621px;}.cls-16{font-size:50px;font-family:MyriadPro-Regular, Myriad Pro;}.cls-17{stroke:#000;stroke-width:7px;}</style><linearGradient id="linear-gradient" x1="-291.73504" y1="1528.4442" x2="829.96156" y2="1442.29471" gradientTransform="translate(303.83312 -461.17177)" gradientUnits="userSpaceOnUse"><stop offset="0.37839" stop-color="#fff"/><stop offset="0.61003" stop-color="#fdfefe"/><stop offset="0.69348" stop-color="#f6faf8"/><stop offset="0.75296" stop-color="#ebf3ef"/><stop offset="0.80108" stop-color="#dae9e2"/><stop offset="0.84227" stop-color="#c4dcd0"/><stop offset="0.87877" stop-color="#a8ccbb"/><stop offset="0.9118" stop-color="#88b9a2"/><stop offset="0.94214" stop-color="#62a284"/><stop offset="0.97036" stop-color="#378962"/><stop offset="0.99541" stop-color="#096d3e"/><stop offset="1" stop-color="#006837"/></linearGradient><linearGradient id="linear-gradient-2" x1="-291.73504" y1="2048.4442" x2="829.96156" y2="1962.29471" gradientTransform="translate(303.83312 -1501.17177)" xlink:href="#linear-gradient"/><linearGradient id="linear-gradient-3" x1="25.8054" y1="2366.5773" x2="1132.09258" y2="2159.36732" gradientUnits="userSpaceOnUse"><stop offset="0.36267" stop-color="#006837"/><stop offset="0.45275" stop-color="#006837"/><stop offset="1" stop-color="#006837"/></linearGradient><linearGradient id="linear-gradient-4" x1="0" y1="2265.5" x2="1130.90751" y2="2265.5" xlink:href="#linear-gradient-3"/><linearGradient id="linear-gradient-5" x1="217.94142" y1="1785.00013" x2="947.94759" y2="1785.00013" xlink:href="#linear-gradient-3"/><linearGradient id="linear-gradient-6" x1="216.45366" y1="1623.00616" x2="219.45398" y2="1623.00616" xlink:href="#linear-gradient-3"/></defs><path class="cls-1" d="M898,1781q-341.75.24995-683.5.5.25-81.24995.5-162.5l155-48,102,48q94.5-68.49995,189-137,75.5,62.00005,151,124,42.5-45.99995,85-92Q897.5,1647.5,898,1781Z" transform="translate(2.95376 4)"/><rect class="cls-2" y="854" width="1125" height="342" transform="translate(1127.95376 2054) rotate(180)"/><rect class="cls-3" y="334" width="1125" height="342" transform="translate(1127.95376 1014) rotate(180)"/><text class="cls-4" transform="translate(33.59047 150.96875)">I<tspan class="cls-5" x="16.29395" y="0">nv</tspan><tspan x="91.95166" y="0">e</tspan><tspan class="cls-6" x="125.90137" y="0">s</tspan><tspan x="162.24268" y="0">timum</tspan></text><path class="cls-7" d="M301.25259,125.43084a59.01181,59.01181,0,0,0-5.5899-10.64833,53.68308,53.68308,0,0,0-7.68366-9.14234,52.53246,52.53246,0,0,0-9.42355-7.22879,53.44787,53.44787,0,0,0-10.73132-4.99284L266.102,92.838l1.3309-1.27559,9.63464-9.23424,9.66849-9.19827q9.68642-9.17918,19.4419-18.28487l.69305-.645.83066.4361a100.87237,100.87237,0,0,1,16.27884,10.64247A88.63756,88.63756,0,0,1,337.80222,78.939a81.31993,81.31993,0,0,1,10.36865,16.37133,77.45533,77.45533,0,0,1,6.17123,18.258,84.913,84.913,0,0,0-7.20978-17.73057,87.63443,87.63443,0,0,0-10.8226-15.64689A93.18413,93.18413,0,0,0,322.487,67.18017c-2.49484-1.95281-5.11292-3.74531-7.78683-5.442-2.67218-1.70085-5.41428-3.29295-8.2284-4.75086l1.52341-.20891q-9.67809,9.188-19.45139,18.27479l-9.77816,9.08158-9.812,9.04558-.39123-1.85591a55.496,55.496,0,0,1,10.99164,5.49674,52.84661,52.84661,0,0,1,16.75879,17.5533A51.762,51.762,0,0,1,301.25259,125.43084Z" transform="translate(2.95376 4)"/><path class="cls-7" d="M337.69281,108.69906a59.01562,59.01562,0,0,0-5.5899-10.64833,53.68354,53.68354,0,0,0-7.68366-9.14234,52.53444,52.53444,0,0,0-9.42358-7.22879,53.4477,53.4477,0,0,0-10.7313-4.99284l-1.72219-.58053,1.3309-1.27559,9.63464-9.23424,9.66846-9.19827q9.68641-9.17918,19.44189-18.28488l.69306-.645.83065.43609a100.87467,100.87467,0,0,1,16.27887,10.64248,88.63967,88.63967,0,0,1,13.82178,13.66046,81.32116,81.32116,0,0,1,10.36865,16.37134,77.45611,77.45611,0,0,1,6.17124,18.258A84.91367,84.91367,0,0,0,383.57251,79.106,87.63635,87.63635,0,0,0,372.74994,63.4591a93.18361,93.18361,0,0,0-13.82269-13.01071c-2.49485-1.95281-5.11292-3.74531-7.78684-5.442-2.67221-1.70085-5.41431-3.29295-8.22839-4.75086l1.52337-.20891q-9.678,9.18806-19.45135,18.27479L315.20587,67.403l-9.812,9.04558-.39127-1.85591a55.49492,55.49492,0,0,1,10.99167,5.49674,52.84723,52.84723,0,0,1,16.75879,17.55329A51.76378,51.76378,0,0,1,337.69281,108.69906Z" transform="translate(2.95376 4)"/><circle class="cls-8" cx="324.95376" cy="509" r="142"/><circle class="cls-8" cx="805.95376" cy="509" r="142"/><circle class="cls-8" cx="324.95376" cy="1023" r="142"/><circle class="cls-8" cx="805.95376" cy="1023" r="142"/><rect class="cls-9" x="2.95376" y="2091" width="1125" height="349"/><image width="100" height="100" transform="translate(217.95376 402) scale(2.14)" xlink:href="../../../../../Downloads/Illustrator/icons8-stocks-100.png"/><image width="100" height="100" transform="translate(718.95376 422) scale(1.74)" xlink:href="../../../../../Downloads/Illustrator/icons8-real-estate-100.png"/><image width="100" height="100" transform="translate(237.95376 942) scale(1.74)" xlink:href="../../../../../Downloads/Illustrator/icons8-equity-security-100.png"/><image width="100" height="100" transform="translate(718.95376 942) scale(1.74)" xlink:href="../../../../../Downloads/Illustrator/icons8-bonds-100.png"/><text class="cls-10" transform="translate(226.34145 752.44336)">Stocks</text><text class="cls-10" transform="translate(648.56502 751.18353)">Real Estate</text><text class="cls-10" transform="translate(160.56551 1281.91595)">Mutu Funds</text><text class="cls-10" transform="translate(713.18605 1280.91687)">Bonds</text><rect class="cls-7" x="297.95376" y="1845" width="536" height="153" rx="15"/><text class="cls-11" transform="translate(370.06215 1938.99707)">Check Markets</text><line class="cls-12" x1="217.94143" y1="1784.99997" x2="947.94759" y2="1785.00029"/><line class="cls-13" x1="217.95366" y1="1785.01232" x2="217.95398" y2="1460.99999"/><polyline class="cls-14" points="217.941 1623.006 372.699 1575.142 475.214 1623.006 663.954 1486.094 814.954 1610.126 899.954 1517.897"/><circle class="cls-15" cx="307.95376" cy="2291" r="105"/><circle class="cls-15" cx="833.95376" cy="2296" r="105"/><image width="96" height="96" transform="translate(259.95376 2243)" xlink:href="../../../../../Downloads/Illustrator/icons8-account-96.png"/><image width="96" height="96" transform="translate(785.95376 2248)" xlink:href="../../../../../Downloads/Illustrator/icons8-sign-up-in-calendar-96.png"/><text class="cls-16" transform="translate(212.45769 2203.92461) rotate(-40.2671)">M</text><text class="cls-16" transform="translate(242.43618 2179.48896) rotate(-27.10019)">y</text><text class="cls-16" transform="translate(262.56848 2169.56938) rotate(-19.6554)"> </text><text class="cls-16" transform="matrix(0.98402, -0.17804, 0.17804, 0.98402, 271.0661, 2165.54067)">A</text><text class="cls-16" transform="matrix(0.99953, 0.03047, -0.03047, 0.99953, 298.93396, 2160.69815)">c</text><text class="cls-16" transform="matrix(0.97956, 0.20111, -0.20111, 0.97956, 319.65922, 2161.2029)">c</text><text class="cls-16" transform="translate(340.00515 2165.01857) rotate(21.89636)">o</text><text class="cls-16" transform="matrix(0.84256, 0.53859, -0.53859, 0.84256, 364.13801, 2174.5953)">u</text><text class="cls-16" transform="translate(386.21193 2188.55715) rotate(42.81743)">n</text><text class="cls-16" transform="matrix(0.63083, 0.77592, -0.77592, 0.63083, 405.37037, 2206.71113)">t</text><text class="cls-16" transform="translate(721.30279 2234.07191) rotate(-55.07127)">S</text><text class="cls-16" transform="matrix(0.67013, -0.74224, 0.74224, 0.67013, 735.09198, 2214.90428)">i</text><text class="cls-16" transform="translate(741.66707 2206.61446) rotate(-39.74275)">g</text><text class="cls-16" transform="translate(761.52256 2189.80718) rotate(-27.61396)">n</text><text class="cls-16" transform="translate(785.17545 2178.05844) rotate(-18.77185)"> </text><text class="cls-16" transform="translate(793.66694 2174.06448) rotate(-8.83205)">U</text><text class="cls-16" transform="translate(823.82226 2169.44077) rotate(4.47435)">p</text><text class="cls-16" transform="translate(850.83243 2171.92499) rotate(13.73143)">/</text><text class="cls-16" transform="translate(866.47263 2175.40617) rotate(21.74086)">S</text><text class="cls-16" transform="translate(888.32635 2184.473) rotate(28.47479)">i</text><text class="cls-16" transform="matrix(0.8116, 0.58421, -0.58421, 0.8116, 898.01305, 2189.06722)">g</text><text class="cls-16" transform="matrix(0.69412, 0.71986, -0.71986, 0.69412, 919.38465, 2204.24797)">n</text><text class="cls-16" transform="translate(937.54241 2223.77431) rotate(53.58554)"> </text><text class="cls-16" transform="matrix(0.52703, 0.84984, -0.84984, 0.52703, 943.46326, 2231.70369)">I</text><text class="cls-16" transform="translate(949.96331 2241.01481) rotate(66.54343)">n</text><rect class="cls-17" x="5.45376" y="3.5" width="1123" height="2437"/></svg>