<svg id="Layer_1" data-name="Layer 1" xmlns="http://www.w3.org/2000/svg" xmlns:xlink="http://www.w3.org/1999/xlink" viewBox="0 0 561.74621 299.14628"><defs><style>.cls-1{font-size:38.02879px;fill:#434747;}.cls-1,.cls-32,.cls-7{font-family:LucidaCalligraphy-Italic, Lucida Calligraphy;}.cls-1,.cls-32,.cls-34,.cls-7{font-style:italic;}.cls-2,.cls-3,.cls-4{opacity:0.8;}.cls-2{font-size:81.25323px;}.cls-10,.cls-2{fill:#037ffc;font-family:BaskOldFace, Baskerville Old Face;}.cls-3{fill:#00bc86;}.cls-5{fill:#f97306;}.cls-6{opacity:0.6;}.cls-25,.cls-7{font-size:36px;}.cls-18,.cls-19,.cls-7{stroke:#000;}.cls-14,.cls-17,.cls-18,.cls-19,.cls-21,.cls-22,.cls-28,.cls-30,.cls-31,.cls-7{stroke-miterlimit:10;}.cls-8{font-size:21px;}.cls-9{fill:url(#linear-gradient);}.cls-10{font-size:100px;}.cls-11{fill:url(#linear-gradient-8);}.cls-12{font-size:84.17651px;}.cls-12,.cls-13{fill:#4ba3e0;}.cls-12,.cls-23,.cls-26{font-family:Microsoft-Himalaya, Microsoft Himalaya;}.cls-14{fill:#d5dfe2;stroke:#d5dfe2;stroke-width:0.21044px;}.cls-15{fill:#959899;}.cls-16{font-size:31.62826px;fill:#f77237;font-family:LucidaFax, Lucida Fax;}.cls-17,.cls-18,.cls-30,.cls-31{fill:none;}.cls-17{stroke:#f77237;stroke-width:0.65892px;}.cls-20{font-size:24px;font-family:KunstlerScript, Kunstler Script;}.cls-21,.cls-23,.cls-24,.cls-25,.cls-26,.cls-28{fill:#81a7f2;}.cls-21{stroke:#81a7f2;}.cls-22{fill:#fff;stroke:#fff;}.cls-23{font-size:33px;}.cls-25{font-family:EdwardianScriptITC, Edwardian Script ITC;}.cls-26{font-size:22.66537px;}.cls-27{fill:url(#radial-gradient);}.cls-28{stroke:#d0d0d8;stroke-width:0.25px;}.cls-29,.cls-32{fill:#12b504;}.cls-30,.cls-31{stroke:#12b504;}.cls-30{stroke-width:0.87319px;}.cls-31{stroke-width:0.66221px;}.cls-32{font-size:18.38688px;}.cls-33,.cls-34{fill:#2ba0f7;}.cls-34{font-size:17.79021px;font-family:SitkaDisplay-Italic, Sitka;}.cls-35{letter-spacing:-0.00445em;}.cls-36{letter-spacing:0.00003em;}.cls-37{letter-spacing:-0.03557em;}</style><linearGradient id="linear-gradient" x1="217.04932" y1="51.84326" x2="371.36816" y2="51.84326" gradientUnits="userSpaceOnUse"><stop offset="0" stop-color="#fff"/><stop offset="0.00211" stop-color="#f7f7f7"/><stop offset="0.00544" stop-color="#e0e0e0"/><stop offset="0.00958" stop-color="#bbb"/><stop offset="0.01437" stop-color="#878787"/><stop offset="0.01965" stop-color="#464646"/><stop offset="0.02208" stop-color="#252525"/><stop offset="0.07687" stop-color="#262626"/><stop offset="0.08466" stop-color="#2a2a2a"/><stop offset="0.09283" stop-color="#373737"/><stop offset="0.10117" stop-color="#4c4c4c"/><stop offset="0.10964" stop-color="#696969"/><stop offset="0.11813" stop-color="#8f8f8f"/><stop offset="0.12661" stop-color="#bcbcbc"/><stop offset="0.13105" stop-color="#b8b8b8"/><stop offset="0.13565" stop-color="#ababab"/><stop offset="0.14032" stop-color="#979797"/><stop offset="0.14505" stop-color="#7a7a7a"/><stop offset="0.14982" stop-color="#545454"/><stop offset="0.15456" stop-color="#272727"/><stop offset="0.15696" stop-color="#0d0d0d"/><stop offset="0.15886" stop-color="#111"/><stop offset="0.16081" stop-color="#1d1d1d"/><stop offset="0.16279" stop-color="#323232"/><stop offset="0.16477" stop-color="#4f4f4f"/><stop offset="0.16678" stop-color="#747474"/><stop offset="0.16879" stop-color="#a1a1a1"/><stop offset="0.17077" stop-color="#d6d6d6"/><stop offset="0.17214" stop-color="#fff"/><stop offset="0.17251" stop-color="#f8f8f8"/><stop offset="0.17648" stop-color="#b0b0b0"/><stop offset="0.18022" stop-color="#737373"/><stop offset="0.18361" stop-color="#444"/><stop offset="0.18659" stop-color="#222"/><stop offset="0.18905" stop-color="#0d0d0d"/><stop offset="0.19069" stop-color="#060606"/><stop offset="0.28319" stop-color="#080808"/><stop offset="0.3165" stop-color="#0f0f0f"/><stop offset="0.34025" stop-color="#1a1a1a"/><stop offset="0.35946" stop-color="#2b2b2b"/><stop offset="0.37591" stop-color="#414141"/><stop offset="0.39047" stop-color="#5d5d5d"/><stop offset="0.40358" stop-color="#7d7d7d"/><stop offset="0.4153" stop-color="#a1a1a1"/><stop offset="0.41673" stop-color="#a6a6a6"/><stop offset="0.41848" stop-color="#9d9d9d"/><stop offset="0.42133" stop-color="#858585"/><stop offset="0.42491" stop-color="#5e5e5e"/><stop offset="0.42905" stop-color="#282828"/><stop offset="0.4318"/><stop offset="0.44842" stop-color="#030303"/><stop offset="0.46196" stop-color="#0d0d0d"/><stop offset="0.47443" stop-color="#1e1e1e"/><stop offset="0.48626" stop-color="#363636"/><stop offset="0.49762" stop-color="#565656"/><stop offset="0.5085" stop-color="#7b7b7b"/><stop offset="0.51104" stop-color="#858585"/><stop offset="0.51396" stop-color="#8c8c8c"/><stop offset="0.51836" stop-color="#a1a1a1"/><stop offset="0.5237" stop-color="#c3c3c3"/><stop offset="0.52972" stop-color="#f2f2f2"/><stop offset="0.53128" stop-color="#fff"/><stop offset="0.54055"/><stop offset="0.57492" stop-color="#020202"/><stop offset="0.5873" stop-color="#090909"/><stop offset="0.59612" stop-color="#141414"/><stop offset="0.60325" stop-color="#252525"/><stop offset="0.60936" stop-color="#3b3b3b"/><stop offset="0.61468" stop-color="#565656"/><stop offset="0.61727" stop-color="#666"/><stop offset="0.64816" stop-color="#030303"/><stop offset="0.64888" stop-color="#010101"/><stop offset="0.68808"/><stop offset="0.6891" stop-color="#0d0d0d"/><stop offset="0.69163" stop-color="#282828"/><stop offset="0.69453" stop-color="#3e3e3e"/><stop offset="0.69792" stop-color="#4f4f4f"/><stop offset="0.70212" stop-color="#5a5a5a"/><stop offset="0.708" stop-color="#616161"/><stop offset="0.72434" stop-color="#636363"/><stop offset="0.72941" stop-color="#666"/><stop offset="0.73254" stop-color="#6e6e6e"/><stop offset="0.73513" stop-color="#7d7d7d"/><stop offset="0.73744" stop-color="#919191"/><stop offset="0.73955" stop-color="#acacac"/><stop offset="0.7415" stop-color="#ccc"/><stop offset="0.74204" stop-color="#d6d6d6"/><stop offset="0.74341" stop-color="#bbb"/><stop offset="0.74636" stop-color="#757575"/><stop offset="0.75065" stop-color="#070707"/><stop offset="0.75089"/><stop offset="0.95069" stop-color="#151515"/><stop offset="0.95786" stop-color="#fff"/><stop offset="0.97472"/></linearGradient><linearGradient id="linear-gradient-8" x1="249.7334" y1="45.09375" x2="293.1416" y2="45.09375" gradientUnits="userSpaceOnUse"><stop offset="0.25252" stop-color="#1287fc"/><stop offset="0.25784" stop-color="#1a8bfc"/><stop offset="0.26611" stop-color="#3096fc"/><stop offset="0.2763" stop-color="#54a8fd"/><stop offset="0.28802" stop-color="#86c2fd"/><stop offset="0.30084" stop-color="#c5e2fe"/><stop offset="0.31149" stop-color="#fff"/><stop offset="0.31296" stop-color="#d9ecfe"/><stop offset="0.36013" stop-color="#0781fc"/><stop offset="0.51344" stop-color="#037ffc"/><stop offset="0.71833" stop-color="#badcfe"/><stop offset="0.79351" stop-color="#037ffc"/></linearGradient><radialGradient id="radial-gradient" cx="297.46413" cy="134.23063" r="7.38116" gradientUnits="userSpaceOnUse"><stop offset="0" stop-color="#fff"/><stop offset="0.11159" stop-color="#fdfefe"/><stop offset="0.15703" stop-color="#f6f9fc"/><stop offset="0.19043" stop-color="#eaf1f7"/><stop offset="0.21795" stop-color="#d8e5f1"/><stop offset="0.24184" stop-color="#c1d5e9"/><stop offset="0.26285" stop-color="#a6c3df"/><stop offset="0.2784" stop-color="#8cb1d6"/><stop offset="0.38833" stop-color="#89afd5"/><stop offset="0.47732" stop-color="#7fa8d1"/><stop offset="0.55874" stop-color="#6e9ccb"/><stop offset="0.60651" stop-color="#6093c6"/><stop offset="0.76773" stop-color="#6294c7"/><stop offset="0.8258" stop-color="#6999c9"/><stop offset="0.8672" stop-color="#74a1cd"/><stop offset="0.90067" stop-color="#85acd3"/><stop offset="0.92935" stop-color="#9bbbdb"/><stop offset="0.95475" stop-color="#b7cee5"/><stop offset="0.97738" stop-color="#d6e3f0"/><stop offset="0.99781" stop-color="#fbfcfd"/><stop offset="1" stop-color="#fff"/></radialGradient></defs><text class="cls-1" transform="translate(0.00004 84.36311)">en ision</text><text class="cls-2" transform="translate(38.46196 84.60872)">v</text><path class="cls-3" d="M33.84447,50.08354a2.50471,2.50471,0,0,1,2.45463-1.43187,2.25348,2.25348,0,0,1,1.50007,1.09095c.88154,1.48164-.21668,3.42528-.4773,3.88652a6.02654,6.02654,0,0,1-2.72738,2.45464c2.652-1.41176,3.41768-3.94025,2.6592-5.11384C36.70819,50.12589,35.28356,49.84228,33.84447,50.08354Z" transform="translate(-22.12256 17.50391)"/><path class="cls-3" d="M56.14081,55.811c2.44955-2.83938,4.26449-4.91933,4.8411-5.59113a2.2699,2.2699,0,0,1,.68185-.54548,1.79345,1.79345,0,0,1,1.36368-.20455c.99505.4921.25359,3.76192.06819,3.75015-.15859-.01009.35371-2.40449-.47729-2.86375C61.93113,49.97649,60.25505,50.88123,56.14081,55.811Z" transform="translate(-22.12256 17.50391)"/><path class="cls-3" d="M96.847,62.76586c-.94568.64358-1.77447,1.2026-2.55692,1.73871a1.47774,1.47774,0,0,1-1.19322.375.93184.93184,0,0,1-.57958-.54548c-.09142-.24465-.0184-.42153.10228-.98867.06728-.31616.10226-.63864.17047-.95459C93.08323,61.0325,94.8733,51.503,94.9378,51.51542c.04327.0083-.76377,4.29539-1.15914,7.56848-.11891.98436-.21992,1.97241-.21992,1.97247-.116,1.13485-.19853,2.11885-.25737,2.90272a7.33408,7.33408,0,0,0,1.2955-.20455A7.41969,7.41969,0,0,0,96.847,62.76586Z" transform="translate(-22.12256 17.50391)"/><path class="cls-3" d="M109.59747,56.08378a44.76035,44.76035,0,0,1-3.23875-4.02289,2.634,2.634,0,0,1-.5114-1.2955,2.417,2.417,0,0,1,.81823-2.04554,2.90816,2.90816,0,0,1,1.43186-.51138,5.0139,5.0139,0,0,1,2.01146,0,4.63383,4.63383,0,0,1,.68185.20455c-.325-.05924-2.56818-.43987-3.81834.71593a2.04517,2.04517,0,0,0-.68185,1.091,2.13775,2.13775,0,0,0,.27274,1.39778A33.56458,33.56458,0,0,0,109.59747,56.08378Z" transform="translate(-22.12256 17.50391)"/><path class="cls-3" d="M128.32075,62.76586c-.94568.64358-1.77448,1.2026-2.55692,1.73871a1.47776,1.47776,0,0,1-1.19323.375.9318.9318,0,0,1-.57957-.54548c-.09143-.24465-.01841-.42153.10227-.98867.06728-.31616.10226-.63864.17047-.95459.29325-1.35835,2.08331-10.88782,2.14782-10.87543.04326.0083-.76377,4.29539-1.15914,7.56848-.11891.98436-.21993,1.97241-.21993,1.97247-.116,1.13485-.19853,2.11885-.25737,2.90272a7.33408,7.33408,0,0,0,1.2955-.20455A7.41988,7.41988,0,0,0,128.32075,62.76586Z" transform="translate(-22.12256 17.50391)"/><path class="cls-3" d="M140.11264,49.48127a4.57036,4.57036,0,0,1,1.94324-1.39779c.20549-.04426.44315-.06817.44321-.06818a4.05785,4.05785,0,0,1,1.125.0341,2.77259,2.77259,0,0,1,1.53416,1.19323,5.09,5.09,0,0,1,.85229,1.87507,10.849,10.849,0,0,1,.27275,3.92061,10.87273,10.87273,0,0,0-.98868-4.73883,5.0099,5.0099,0,0,0-.4091-.78412,2.76737,2.76737,0,0,0-.92049-.95458,2.4133,2.4133,0,0,0-1.70463-.06818A5.2376,5.2376,0,0,0,140.11264,49.48127Z" transform="translate(-22.12256 17.50391)"/><path class="cls-3" d="M163.76875,55.811c2.44955-2.83938,4.26448-4.91933,4.8411-5.59113a2.27,2.27,0,0,1,.68184-.54548,1.79347,1.79347,0,0,1,1.36369-.20455c.995.4921.25359,3.76192.06819,3.75015-.15859-.01009.35371-2.40449-.4773-2.86375C169.55907,49.97649,167.883,50.88123,163.76875,55.811Z" transform="translate(-22.12256 17.50391)"/><g class="cls-4"><path class="cls-5" d="M91.46618,38.03308a16.47627,16.47627,0,0,0,5.74412-3.20564,5.181,5.181,0,0,0,1.569-2.56934,4.40922,4.40922,0,0,0-.361-2.87532c-.80908-1.89009-2.47566-3.356-3.95152-4.93027-1.51906-1.57365-3.17692-3.058-4.75165-4.74152l.1044-.15576a21.3251,21.3251,0,0,1,5.92058,3.52085,13.28523,13.28523,0,0,1,4.08254,5.77946A5.76344,5.76344,0,0,1,99.954,32.583a6.2644,6.2644,0,0,1-2.12938,2.95271A16.18687,16.18687,0,0,1,91.518,38.21328Z" transform="translate(-22.12256 17.50391)"/></g><g class="cls-4"><path class="cls-5" d="M73.08014,38.1123a16.47627,16.47627,0,0,0,5.74412-3.20564,5.181,5.181,0,0,0,1.569-2.56934,4.40922,4.40922,0,0,0-.361-2.87532c-.80908-1.89009-2.47566-3.356-3.95152-4.93027-1.51906-1.57365-3.17692-3.058-4.75165-4.74152l.1044-.15575A21.32507,21.32507,0,0,1,77.354,23.1553a13.28523,13.28523,0,0,1,4.08254,5.77946,5.76331,5.76331,0,0,1,.13136,3.72745,6.26434,6.26434,0,0,1-2.12938,2.95271A16.18687,16.18687,0,0,1,73.132,38.2925Z" transform="translate(-22.12256 17.50391)"/></g><g class="cls-4"><path class="cls-5" d="M63.551,36.585a27.12024,27.12024,0,0,1-4.19191-1.333,15.83062,15.83062,0,0,1-3.8827-2.2077,7.95706,7.95706,0,0,1-2.672-3.76289,7.24685,7.24685,0,0,1,.20359-4.6962,17.59547,17.59547,0,0,1,5.26128-7.35075,31.06831,31.06831,0,0,1,7.48638-4.73308l.1044.15576c-2.12234,2.05262-4.31269,3.93165-6.31745,5.95374-.99619,1.01245-1.99713,2.00453-2.89924,3.06781a12.84743,12.84743,0,0,0-2.231,3.43377l-.36234.93908-.17592.96885a3.74339,3.74339,0,0,0-.03119.97327,4.786,4.786,0,0,0,.01982.48867l.11639.47419A6.8757,6.8757,0,0,0,56.09069,32.336a21.30459,21.30459,0,0,0,7.51217,4.06881Z" transform="translate(-22.12256 17.50391)"/></g><g class="cls-4"><path class="cls-5" d="M70.33532,27.549a13.66166,13.66166,0,0,1-5.38162-2.226,5.37763,5.37763,0,0,1-1.8455-2.52886,4.98818,4.98818,0,0,1,.09357-3.22065,11.05378,11.05378,0,0,1,3.46587-4.95742,16.60572,16.60572,0,0,1,5.10142-2.88666l.1044.15576c-1.28764,1.4913-2.66789,2.76777-3.93249,4.10732-1.22615,1.339-2.65035,2.54318-3.33486,4.10824a3.63577,3.63577,0,0,0-.32321,2.36852A4.292,4.292,0,0,0,65.568,24.61475a13.94477,13.94477,0,0,0,4.81916,2.75407Z" transform="translate(-22.12256 17.50391)"/></g><g class="cls-4"><path class="cls-5" d="M89.94063,32.453A13.66179,13.66179,0,0,1,84.559,30.227a5.37758,5.37758,0,0,1-1.8455-2.52886,4.98812,4.98812,0,0,1,.09356-3.22065A11.05382,11.05382,0,0,1,86.273,19.52005a16.60578,16.60578,0,0,1,5.10141-2.88666l.10441.15575c-1.28765,1.49131-2.6679,2.76778-3.93249,4.10733-1.22615,1.339-2.65035,2.54318-3.33486,4.10824a3.63571,3.63571,0,0,0-.32322,2.36852,4.29212,4.29212,0,0,0,1.28509,2.14548,13.94464,13.94464,0,0,0,4.81915,2.75406Z" transform="translate(-22.12256 17.50391)"/></g><g class="cls-6"><text class="cls-7" transform="translate(191.39351 83.2251)">en<tspan class="cls-8" x="45.08789" y="0" xml:space="preserve">   </tspan><tspan x="66.00635" y="0">ision</tspan></text><path class="cls-9" d="M232.44775,60.90479l-.26367,1.35351q-5.58984,3.90234-9.52734,3.90234a5.16792,5.16792,0,0,1-4.05176-1.74755,6.54653,6.54653,0,0,1-1.55566-4.52247,13.98182,13.98182,0,0,1,3.79687-9.31689q3.79688-4.36377,8.10352-4.36426A3.27486,3.27486,0,0,1,231.481,47.2627a3.89017,3.89017,0,0,1,.96679,2.73828q0,3.36987-3.44531,5.792a13.93352,13.93352,0,0,1-8.22656,2.42236l-.01758.791q0,5.13281,3.76172,5.13281Q227.772,64.13916,232.44775,60.90479ZM220.811,57.14307a11.38259,11.38259,0,0,0,6.15234-2.03028,5.36024,5.36024,0,0,0,2.21484-4.43847q0-2.68946-1.95117-2.68946-2.10937,0-4.07812,2.80371A13.24864,13.24864,0,0,0,220.811,57.14307Z" transform="translate(-22.12256 17.50391)"/><path class="cls-9" d="M237.73877,65.93213l1.30078-5.41406,1.72266-8.6836a17.69278,17.69278,0,0,0,.40429-2.63672q0-1.08984-1.03711-1.08984-1.72264,0-5.23828,3.86377l.31641-1.61523q3.832-4.147,6.9082-4.147,2.53125,0,2.53125,2.63672a18.14839,18.14839,0,0,1-.40429,2.98828l-.86133,4.3418h.26367a26.24559,26.24559,0,0,1,4.96582-7.2334q2.76855-2.73339,5.15918-2.7334,2.88281,0,2.88281,3.19922a13.26515,13.26515,0,0,1-.29883,2.53125l-1.70507,8.57813a18.14047,18.14047,0,0,0-.4043,2.63672q0,1.10742,1.03711,1.10742,1.75781,0,5.25586-3.8628l-.334,1.63282q-3.832,4.12866-6.9082,4.12841-2.53125,0-2.53125-2.65136a17.70012,17.70012,0,0,1,.42188-2.98535l1.70507-8.6045a8.42671,8.42671,0,0,0,.21094-1.686q0-1.42236-1.05469-1.42236-3.35742,0-9.3164,10.63476l-1.28321,6.27539Z" transform="translate(-22.12256 17.50391)"/><path class="cls-9" d="M295.09668,60.395l-.31641,1.63477q-3.8496,4.13085-6.9082,4.13085-2.53125,0-2.53125-2.65429a17.55369,17.55369,0,0,1,.4043-2.95313L286.958,54.436a23.61329,23.61329,0,0,0,.49219-3.4629q0-1.47655-1.14258-1.47656a12.15139,12.15139,0,0,0-2.83008.59766l.21094-1.07227,8.5957-2.8125-1.33594,5.625-1.72265,8.6836a18.41162,18.41162,0,0,0-.4043,2.60156q0,1.14258,1.03711,1.14258Q291.59862,64.26221,295.09668,60.395Zm-6.45117-17.24414,1.17773-2.39063,4.957-3.23437-1.51172,3.23437Z" transform="translate(-22.12256 17.50391)"/><path class="cls-9" d="M294.28809,65.12354l2.32031-2.37305a7.79851,7.79851,0,0,0,4.64844,1.66992,3.92,3.92,0,0,0,2.45507-.76465,2.2999,2.2999,0,0,0,1-1.88965q0-1.248-1.98632-3.41015L301.126,56.59814q-2.3379-2.56639-2.33789-4.28906a5.40509,5.40509,0,0,1,2.26757-4.24512,7.96223,7.96223,0,0,1,5.18555-1.85449,11.37543,11.37543,0,0,1,3.58594.668l-.77344,3.88477h-1.125l.05274-.29883a1.71689,1.71689,0,0,0,.03515-.36914q0-2.373-3.05078-2.373-3.41748,0-3.418,2.74219,0,1.38867,2.03906,3.69141l1.44141,1.5996q2.35546,2.65431,2.35547,4.35938a5.23067,5.23067,0,0,1-2.49609,4.20117,9.30481,9.30481,0,0,1-5.67774,1.8457A13.7982,13.7982,0,0,1,294.28809,65.12354Z" transform="translate(-22.12256 17.50391)"/><path class="cls-9" d="M324.8916,60.395l-.3164,1.63477q-3.84962,4.13085-6.90821,4.13085-2.53125,0-2.53125-2.65429a17.55369,17.55369,0,0,1,.4043-2.95313l1.21289-6.11718a23.61329,23.61329,0,0,0,.49219-3.4629q0-1.47655-1.14258-1.47656a12.15158,12.15158,0,0,0-2.83008.59766l.21094-1.07227,8.5957-2.8125-1.33594,5.625-1.72265,8.6836a18.4132,18.4132,0,0,0-.4043,2.60156q0,1.14258,1.03711,1.14258Q321.39356,64.26221,324.8916,60.395Zm-6.45117-17.24414,1.17773-2.39063,4.957-3.23437-1.51172,3.23437Z" transform="translate(-22.12256 17.50391)"/><path class="cls-9" d="M331.78223,66.16064a4.8451,4.8451,0,0,1-3.84082-1.80175,6.676,6.676,0,0,1-1.53809-4.49121,13.79682,13.79682,0,0,1,3.832-9.36036q3.832-4.29784,8.34961-4.29785a5.17691,5.17691,0,0,1,4.02539,1.75782,6.44643,6.44643,0,0,1,1.582,4.48242,13.76808,13.76808,0,0,1-3.832,9.4834Q336.52832,66.16063,331.78223,66.16064Zm2.0039-1.52929q2.60157,0,4.5791-3.34864a15.00923,15.00923,0,0,0,1.97754-7.77832q0-5.81835-3.55078-5.81835-2.51367,0-4.52637,3.4541a15.16259,15.16259,0,0,0-2.01269,7.77832Q330.25293,64.63135,333.78613,64.63135Z" transform="translate(-22.12256 17.50391)"/><path class="cls-9" d="M348.56934,65.93213l1.30078-5.41406,1.72265-8.6836a17.69331,17.69331,0,0,0,.4043-2.63672q0-1.08984-1.03711-1.08984-1.72266,0-5.23828,3.86377l.31641-1.61523q3.832-4.147,6.9082-4.147,2.53125,0,2.53125,2.63672a18.14871,18.14871,0,0,1-.4043,2.98828l-.86133,4.3418h.26368a26.24537,26.24537,0,0,1,4.96582-7.2334q2.76855-2.73339,5.15918-2.7334,2.88281,0,2.88281,3.19922a13.26515,13.26515,0,0,1-.29883,2.53125l-1.70508,8.57813a18.14138,18.14138,0,0,0-.40429,2.63672q0,1.10742,1.0371,1.10742,1.75782,0,5.25586-3.8628l-.334,1.63282q-3.832,4.12866-6.9082,4.12841-2.53125,0-2.53125-2.65136a17.6998,17.6998,0,0,1,.42187-2.98535l1.70508-8.6045a8.42744,8.42744,0,0,0,.21094-1.686q0-1.42236-1.05469-1.42236-3.35742,0-9.31641,10.63476l-1.2832,6.27539Z" transform="translate(-22.12256 17.50391)"/></g><g class="cls-4"><text class="cls-10" transform="translate(228.29428 83.34975)"><tspan xml:space="preserve">v  </tspan></text><path class="cls-11" d="M249.7334,24.3418h18.94531V25.416a8.79971,8.79971,0,0,0-2.92969.97509,3.40561,3.40561,0,0,0-1.5625,3.12207,11.72254,11.72254,0,0,0,.48584,3.07227q.48559,1.75561,1.79834,5.1206l7.87207,20.044,7.959-20.873a21.96352,21.96352,0,0,0,1.75781-6.87646,4.14105,4.14105,0,0,0-1.51367-3.56055A7.852,7.852,0,0,0,279.665,25.416V24.3418H293.1416V25.416a8.82222,8.82222,0,0,0-4.39453,2.43847q-2.10059,2.19507-4.834,9.21778L272.63379,65.8457h-2.63672L257.74121,35.60889q-2.83227-6.97413-4.05273-8.4375a4.35963,4.35963,0,0,0-1.51368-1.146,10.18164,10.18164,0,0,0-2.4414-.60937Z" transform="translate(-22.12256 17.50391)"/></g><text class="cls-12" transform="translate(376.55778 84.52592)">San o</text><path class="cls-13" d="M498.11065,74.60138q-1.102-2.47938-2.20391-4.95877l6.70353,1.28562c-3.146-1.33182-7.87413-3.94686-10.762-8.97943-3.01235-5.24955-1.94116-10.44229-1.96747-16.7066A227.093,227.093,0,0,1,491.84825,15.035q-1.39983,3.25305-2.79968,6.5061l-2.79965-6.5061a284.131,284.131,0,0,1-.739,29.909c-.53055,6.68895-1.26858,11.715,1.24343,17.48781C489.48692,68.71376,494.56109,72.49992,498.11065,74.60138Z" transform="translate(-22.12256 17.50391)"/><polygon class="cls-13" points="484.883 51.928 481.744 50.07 484.941 48.137 448.993 47.631 452.965 49.583 448.935 51.423 484.883 51.928"/><polygon class="cls-14" points="476.156 47.562 472.224 47.013 472.577 43.866 469.509 44.483 469.295 40.632 465.434 49.223 456.167 52.231 460.17 52.734 459.288 55.608 462.599 55.516 462.867 59.303 467.138 50.982 476.156 47.562"/><path class="cls-15" d="M484.63233,38.10272l.1,1.33782,3.86187-6.88018Q486.6133,35.33155,484.63233,38.10272Z" transform="translate(-22.12256 17.50391)"/><path class="cls-15" d="M491.73574,26.8651l-.06-.95557-3.48168,6.173Q489.9649,29.47384,491.73574,26.8651Z" transform="translate(-22.12256 17.50391)"/><path class="cls-15" d="M482.13112,35.33154l-1.02051-.172,6.94337-2.94318Q485.09253,33.77394,482.13112,35.33154Z" transform="translate(-22.12256 17.50391)"/><path class="cls-15" d="M494.53711,29.407l.82038.15289-6.6432,2.94319Z" transform="translate(-22.12256 17.50391)"/><text class="cls-16" transform="translate(376.5574 179.96308)">SunRise</text><path class="cls-17" d="M418.5883,143.58369c3.38095-3.24056,20.63646-19.11007,47.38631-18.7863,24.936.30182,41.10481,14.46932,44.86278,17.94512" transform="translate(-22.12256 17.50391)"/><polyline class="cls-17" points="442.184 139.329 446.053 114.374 448.181 139.329"/><polyline class="cls-17" points="465.278 143.401 477.698 121.413 470.89 145.515"/><polyline class="cls-17" points="424.299 142.558 412.638 120.159 418.618 144.48"/><polyline class="cls-17" points="484.044 152.536 503.253 136.144 488.59 156.448"/><polyline class="cls-17" points="402.444 152.123 382.648 136.444 398.044 156.198"/><path class="cls-18" d="M75.45512,120.11522A51.06188,51.06188,0,0,0,93.9469,145.934a48.92209,48.92209,0,0,0,16.3218,7.58722" transform="translate(-22.12256 17.50391)"/><path class="cls-18" d="M72.1394,111.70028a51.06191,51.06191,0,0,0,21.14237,23.6972,48.922,48.922,0,0,0,17.03849,5.80144" transform="translate(-22.12256 17.50391)"/><path class="cls-18" d="M70.6412,102.65474a51.062,51.062,0,0,0,22.60586,22.30544,48.92231,48.92231,0,0,0,17.37279,4.70672" transform="translate(-22.12256 17.50391)"/><path class="cls-18" d="M63.09354,114.752c-3.0919,31.2094,4.582,47.364,12.69732,56.40212,6.22534,6.93328,13.97112,11.08294,16.93722,21.26319,3.259,11.18543-1.34874,22.45531-5.84893,30.33294" transform="translate(-22.12256 17.50391)"/><path class="cls-18" d="M44.26846,131.75947c.36791,31.36,9.77614,46.57,18.83847,54.65834,6.9518,6.20463,15.10788,9.475,19.17831,19.26616,4.47235,10.75791,1.13527,22.46711-2.469,30.79288" transform="translate(-22.12256 17.50391)"/><path class="cls-18" d="M53.1254,124.71634c-1.459,31.32823,7.04755,47.06029,15.62347,55.66263,6.57868,6.59894,14.53047,10.33872,18.0238,20.35031,3.83828,11.00011-.175,22.49509-4.258,30.59684" transform="translate(-22.12256 17.50391)"/><path class="cls-19" d="M84.53443,174.64939a20.94637,20.94637,0,0,1,2.59669-1.78091,21.56307,21.56307,0,0,1,7.93332-2.692l1.4211,1.78708,1.78709-1.78708a19.18087,19.18087,0,0,1,9.90425,4.15341,15.29593,15.29593,0,0,1-23.64245.31949Z" transform="translate(-22.12256 17.50391)"/><text class="cls-20" transform="translate(22.14624 273.1089)">Diva Cielo</text><circle class="cls-21" cx="288.96936" cy="140.75408" r="10.49477"/><circle class="cls-22" cx="295.23694" cy="140.75408" r="10.49477"/><text class="cls-23" transform="translate(224.61205 151.66465)"><tspan xml:space="preserve">  anto     elo</tspan></text><text x="-22.12256" y="17.50391"/><path class="cls-24" d="M228.04148,140.95541a128.90428,128.90428,0,0,1,22.92107,4.32472,130.60863,130.60863,0,0,1,40.22,19.46129H286.07l1.63817,3.833a130.60863,130.60863,0,0,0-40.22-19.46129,128.90412,128.90412,0,0,0-22.92107-4.32472l3.84737-1.26078Z" transform="translate(-22.12256 17.50391)"/><path class="cls-24" d="M250.277,163.30209a255.38167,255.38167,0,0,1,90.86585-22.33734q6.3698-.33591,12.50505-.33733l-4.43819-1.111,1.5157-2.99291q-6.1332.00783-12.505.33734a255.38141,255.38141,0,0,0-90.86585,22.33734l3.59251.97357Z" transform="translate(-22.12256 17.50391)"/><text class="cls-25" transform="translate(206.51245 152.79027)">S</text><text class="cls-26" transform="translate(292.23695 151.37196) scale(1.40566 1)">1</text><polygon class="cls-27" points="303.197 134.231 297.874 134.641 297.464 139.963 297.054 134.641 291.732 134.231 297.054 133.821 297.464 128.498 297.874 133.821 303.197 134.231"/><path class="cls-28" d="M268.11045,153.6398c-.35705,1.27574-2.592,1.64859-4.37429,1.94593-2.047.3415-3.69987.61725-4.48061-.28256-.81682-.94142-.02225-2.88181,1.56689-6.7626.49559-1.21024.76687-1.68869,1.25037-1.80973.31693-.07934.98443-.07007,3.62012,3.05353C267.44338,151.85885,268.31443,152.911,268.11045,153.6398Z" transform="translate(-22.12256 17.50391)"/><path class="cls-28" d="M267.88046,153.921c.104,1.32068,2.22487,2.11806,3.91622,2.754,1.94251.73032,3.51106,1.32005,4.45085.58793.98323-.766.5783-2.82328-.23159-6.93788-.25256-1.28317-.42636-1.805-.87739-2.01712-.29564-.139-.95237-.25883-4.1416,2.297C268.87887,152.30233,267.82105,153.16645,267.88046,153.921Z" transform="translate(-22.12256 17.50391)"/><path class="cls-29" d="M232.87926,231.44749a53.6976,53.6976,0,0,0,6.08606-.29468,56.10272,56.10272,0,0,0,5.98594-.88971,42.58766,42.58766,0,0,0,11.31538-3.89258,29.65632,29.65632,0,0,0,9.25516-7.4107,31.76855,31.76855,0,0,0,5.78056-10.5354,26.19306,26.19306,0,0,1-4.88293,11.24257,27.62949,27.62949,0,0,1-9.472,7.99907,37.4138,37.4138,0,0,1-11.79995,3.71835A41.92507,41.92507,0,0,1,232.87926,231.44749Z" transform="translate(-22.12256 17.50391)"/><path class="cls-29" d="M225.62444,238.19676a53.6963,53.6963,0,0,0,5.50583-2.61014,56.10242,56.10242,0,0,0,5.1848-3.121,42.588,42.588,0,0,0,8.95169-7.94088,29.65635,29.65635,0,0,0,5.698-10.39755,31.76829,31.76829,0,0,0,1.28963-11.94766,26.19281,26.19281,0,0,1-.18921,12.25572A27.629,27.629,0,0,1,246.393,225.4593a37.41307,37.41307,0,0,1-9.466,7.96617A41.926,41.926,0,0,1,225.62444,238.19676Z" transform="translate(-22.12256 17.50391)"/><path class="cls-30" d="M258.22517,217.324a29.1493,29.1493,0,0,1,10.83464-19.87175,17.19927,17.19927,0,0,1-1.96224,9.585,22.74923,22.74923,0,0,1-3.01392,3.99088,40.2356,40.2356,0,0,1,12.2243-11.08347,30.68,30.68,0,0,1,7.5756-2.93524l-7.90377,14.92892,8.49889-3.23333c-1.91892,7.8862-7.08565,13.87812-13.55229,15.24371a14.96374,14.96374,0,0,1-7.3602-.37641" transform="translate(-22.12256 17.50391)"/><path class="cls-31" d="M255.2294,209.27718a22.10622,22.10622,0,0,0,2.7895-16.93656,13.0435,13.0435,0,0,0-3.29721,6.647,17.25269,17.25269,0,0,0-.05912,3.79225,30.51386,30.51386,0,0,0-2.1405-12.32942,23.26735,23.26735,0,0,0-3.16109-5.28862l-2.23671,12.61379-3.57417-5.89752c-2.53076,5.61088-2.23584,11.60384.99422,15.43659a11.34817,11.34817,0,0,0,4.57689,3.20783" transform="translate(-22.12256 17.50391)"/><text class="cls-32" transform="translate(202.445 271.51399)">Ecosystima</text><path class="cls-33" d="M404.7707,218.66173c3.53028-.96027,7.12-1.70238,10.73219-2.32361q5.42912-.8649,10.92811-1.2442a121.21078,121.21078,0,0,1,21.99275.6138,119.971,119.971,0,0,1,21.48517,4.73628q5.23468,1.70279,10.30125,3.8539c3.3565,1.472,6.65638,3.06924,9.84909,4.85525a141.64836,141.64836,0,0,0-20.42836-7.80671,128.40445,128.40445,0,0,0-21.35684-4.42173,129.85825,129.85825,0,0,0-21.79228-.89218A141.80071,141.80071,0,0,0,404.7707,218.66173Z" transform="translate(-22.12256 17.50391)"/><path class="cls-33" d="M456.70752,229.35442a79.04688,79.04688,0,0,1,29.41421-18.30036,66.61569,66.61569,0,0,1,17.13671-3.31236,59.353,59.353,0,0,1,17.32654,1.48718,73.0776,73.0776,0,0,0-8.63012-.87132c-1.442-.06471-2.88484-.09017-4.32638-.06432-1.442.01868-2.87828.17292-4.31523.25219a69.56126,69.56126,0,0,0-16.85768,3.5,78.82619,78.82619,0,0,0-15.6572,7.22917,85.40873,85.40873,0,0,0-7.24332,4.74246C461.1875,225.67815,458.93126,227.49376,456.70752,229.35442Z" transform="translate(-22.12256 17.50391)"/><path class="cls-33" d="M444.46722,213.9453c1.96068-1.27059,3.98252-2.414,6.02637-3.51169,2.04009-1.10547,4.11545-2.13757,6.19948-3.15167l.31058-.15113.308.154c2.03436,1.01709,4.06142,2.049,6.05218,3.15474,1.99457,1.09793,3.9677,2.23946,5.87938,3.50579-2.16952-.7425-4.27761-1.60981-6.36425-2.52069-2.09047-.90314-4.14463-1.88-6.19147-2.87175l.61816.00282c-2.09335.99473-4.19534,1.97147-6.33262,2.87482C448.83945,212.34167,446.68391,213.20706,444.46722,213.9453Z" transform="translate(-22.12256 17.50391)"/><path class="cls-33" d="M441.217,205.83057c1.96069-1.2706,3.98251-2.41405,6.02636-3.51171,2.04009-1.10547,4.11547-2.13757,6.1995-3.15167l.31056-.15112.308.154c2.03438,1.01709,4.06143,2.049,6.05219,3.15474,1.99456,1.09794,3.96769,2.23945,5.87938,3.5058-2.16953-.7425-4.27762-1.60982-6.36426-2.52071-2.09046-.90314-4.14463-1.88-6.19147-2.87175l.61816.00282c-2.09333.99474-4.19534,1.97147-6.33262,2.87484C445.58926,204.22693,443.43372,205.09233,441.217,205.83057Z" transform="translate(-22.12256 17.50391)"/><path class="cls-33" d="M421.8273,211.8571c1.96069-1.2706,3.98251-2.41405,6.02637-3.5117,2.04008-1.10547,4.11546-2.13758,6.19949-3.15167l.31058-.15113.30794.154c2.03437,1.01709,4.06143,2.049,6.05218,3.15474,1.99457,1.09795,3.9677,2.23946,5.87938,3.5058-2.16952-.74249-4.27762-1.60982-6.36426-2.5207-2.09045-.90314-4.14462-1.88-6.19146-2.87175l.61816.00282c-2.09334.99473-4.19534,1.97146-6.33263,2.87483C426.19954,210.25346,424.044,211.11887,421.8273,211.8571Z" transform="translate(-22.12256 17.50391)"/><path class="cls-33" d="M485.24091,195.10675c-.13962-1.29028-.20516-2.58069-.30668-3.871-.07949-1.29037-.15191-2.58078-.19647-3.87123-.10942-2.58087-.15394-5.16186-.17232-7.7429l-.00454-.63823.651-.00949c1.57848-.023,3.157.01376,4.73546.0177,1.57848.03563,3.157.0514,4.73545.11912l.52523.02254-.01556.48715c-.044,1.37692-.11337,2.75386-.19,4.1308-.10814,1.37694-.17184,2.75388-.31958,4.13081-.14773-1.37693-.21145-2.75387-.31958-4.13081-.07661-1.37694-.146-2.75388-.19-4.1308l.50948.50948c-1.57848.06772-3.157.08349-4.73545.11912-1.57849.00394-3.157.04071-4.73546.0177l.64631-.64752c-.0087,2.58109-.04354,5.16223-.14327,7.74349-.0397,1.29061-.10728,2.58128-.18193,3.872C485.43637,192.5253,485.37567,193.81595,485.24091,195.10675Z" transform="translate(-22.12256 17.50391)"/><path class="cls-33" d="M480.60686,212.64693c-.13962-1.29029-.20516-2.58069-.30669-3.871-.0795-1.29039-.1519-2.58079-.19646-3.87124-.10942-2.58087-.15394-5.16187-.17233-7.74291l-.00453-.63823.651-.00949c1.57847-.023,3.157.01377,4.73544.0177,1.57849.03563,3.157.05141,4.73546.11913l.52524.02254-.01557.48715c-.044,1.37692-.11339,2.75386-.19,4.1308-.10814,1.37693-.17184,2.75387-.31958,4.13081-.14773-1.37694-.21145-2.75388-.31959-4.13081-.0766-1.37694-.146-2.75388-.19-4.1308l.50948.50947c-1.57848.06772-3.157.0835-4.73546.11913-1.57848.00394-3.157.04071-4.73544.0177l.6463-.64752c-.0087,2.58108-.04354,5.16223-.14327,7.7435-.0397,1.2906-.10728,2.58127-.18193,3.87194C480.80232,210.06548,480.74162,211.35612,480.60686,212.64693Z" transform="translate(-22.12256 17.50391)"/><path class="cls-33" d="M493.184,205.83432c-.13961-1.29028-.20515-2.58069-.30668-3.871-.0795-1.29039-.1519-2.5808-.19646-3.87125-.10942-2.58087-.15394-5.16186-.17233-7.7429l-.00453-.63823.651-.00949c1.57848-.023,3.157.01376,4.73545.0177,1.57849.03563,3.157.0514,4.73545.11912l.52524.02254-.01556.48715c-.044,1.37694-.11339,2.75386-.19,4.1308-.10814,1.37694-.17184,2.75387-.31958,4.13081-.14773-1.37694-.21145-2.75387-.31959-4.13081-.0766-1.37694-.146-2.75386-.19-4.1308l.50947.50948c-1.57849.06772-3.157.08349-4.73545.11912-1.57848.00394-3.157.04071-4.73545.0177l.6463-.64752c-.00869,2.5811-.04353,5.16223-.14326,7.7435-.03972,1.2906-.10728,2.58127-.18193,3.87195C493.37944,203.25288,493.31874,204.54353,493.184,205.83432Z" transform="translate(-22.12256 17.50391)"/><text class="cls-34" transform="translate(394.44205 267.49956)">Es<tspan class="cls-35" x="16.8335" y="0">t</tspan><tspan x="22.50244" y="0">a</tspan><tspan class="cls-35" x="30.62256" y="0">t</tspan><tspan class="cls-36" x="36.2915" y="0">e</tspan><tspan class="cls-37" x="43.3999" y="0">W</tspan><tspan x="57.93994" y="0">orld</tspan></text></svg>